<?xml version="1.0" encoding="UTF-8" standalone="no"?>
<svg
   xmlns:dc="http://purl.org/dc/elements/1.1/"
   xmlns:cc="http://creativecommons.org/ns#"
   xmlns:rdf="http://www.w3.org/1999/02/22-rdf-syntax-ns#"
   xmlns:svg="http://www.w3.org/2000/svg"
   xmlns="http://www.w3.org/2000/svg"
   xmlns:sodipodi="http://sodipodi.sourceforge.net/DTD/sodipodi-0.dtd"
   xmlns:inkscape="http://www.inkscape.org/namespaces/inkscape"
   fill="#000000"
   height="18"
   viewBox="0 0 24 24"
   width="18"
   id="svg2"
   version="1.1"
   inkscape:version="0.91 r13725"
   sodipodi:docname="ic_gps_fixed_black_18px.svg">
  <metadata
     id="metadata12">
    <rdf:RDF>
      <cc:Work
         rdf:about="">
        <dc:format>image/svg+xml</dc:format>
        <dc:type
           rdf:resource="http://purl.org/dc/dcmitype/StillImage" />
      </cc:Work>
    </rdf:RDF>
  </metadata>
  <defs
     id="defs10" />
  <sodipodi:namedview
     pagecolor="#ffffff"
     bordercolor="#666666"
     borderopacity="1"
     objecttolerance="10"
     gridtolerance="10"
     guidetolerance="10"
     inkscape:pageopacity="0"
     inkscape:pageshadow="2"
     inkscape:window-width="1366"
     inkscape:window-height="706"
     id="namedview8"
     showgrid="false"
     inkscape:snap-bbox="true"
     inkscape:bbox-paths="true"
     inkscape:bbox-nodes="true"
     inkscape:snap-bbox-edge-midpoints="true"
     inkscape:snap-bbox-midpoints="true"
     inkscape:object-paths="true"
     inkscape:snap-intersection-paths="true"
     inkscape:object-nodes="true"
     inkscape:snap-smooth-nodes="true"
     inkscape:snap-midpoints="true"
     inkscape:zoom="18.541911"
     inkscape:cx="0.73392368"
     inkscape:cy="9.0210902"
     inkscape:window-x="-8"
     inkscape:window-y="-8"
     inkscape:window-maximized="1"
     inkscape:current-layer="svg2" />
  <path
     d="M0 0h24v24H0z"
     fill="none"
     id="path4" />
  <g
     id="g4178"
     inkscape:export-xdpi="87.272728"
     inkscape:export-ydpi="87.272728">
    <path
       sodipodi:nodetypes="cccccccccccccccccsssss"
       id="path6"
       d="m 10.898305,0.89830508 0,2.05989592 c -4.1699998,0.46 -7.480104,3.770104 -7.940104,7.940104 l -2.05989593,0 0,2 2.05989593,0 c 0.46,4.17 3.7701042,7.480104 7.940104,7.940104 l 0,2.059896 2,0 0,-2.059896 c 4.17,-0.46 7.480104,-3.770104 7.940104,-7.940104 l 2.059896,0 0,-2 -2.059896,0 c -0.46,-4.17 -3.770104,-7.480104 -7.940104,-7.940104 l 0,-2.05989592 z m 1,4.00000002 c 3.87,0 7,3.1299999 7,6.9999999 0,3.87 -3.13,7 -7,7 -3.8699998,0 -6.9999998,-3.13 -6.9999998,-7 0,-3.87 3.13,-6.9999999 6.9999998,-6.9999999 z"
       inkscape:connector-curvature="0" />
    <path
       style="fill:#c0392b"
       sodipodi:nodetypes="sssss"
       inkscape:connector-curvature="0"
       d="m 11.898305,7.898305 c -2.2099998,0 -3.9999998,1.79 -3.9999998,4 0,2.21 1.79,4 3.9999998,4 2.21,0 4,-1.79 4,-4 0,-2.21 -1.79,-4 -4,-4 z"
       id="path4168" />
    <rect
       ry="0"
       y="10.898305"
       x="0.89830506"
       height="1.9557745"
       width="5.9330654"
       id="rect4170"
       style="opacity:1;fill:#000000;fill-opacity:1;stroke:none;stroke-width:2;stroke-linecap:round;stroke-linejoin:round;stroke-miterlimit:4;stroke-dasharray:none;stroke-dashoffset:0;stroke-opacity:1" />
    <rect
       style="opacity:1;fill:#000000;fill-opacity:1;stroke:none;stroke-width:2;stroke-linecap:round;stroke-linejoin:round;stroke-miterlimit:4;stroke-dasharray:none;stroke-dashoffset:0;stroke-opacity:1"
       id="rect4172"
       width="5.9330654"
       height="1.9557745"
       x="16.96524"
       y="10.898305"
       ry="0" />
    <rect
       transform="matrix(0,-1,1,0,0,0)"
       ry="0"
       y="10.898305"
       x="-6.8313704"
       height="1.9557745"
       width="5.9330654"
       id="rect4174"
       style="opacity:1;fill:#000000;fill-opacity:1;stroke:none;stroke-width:2;stroke-linecap:round;stroke-linejoin:round;stroke-miterlimit:4;stroke-dasharray:none;stroke-dashoffset:0;stroke-opacity:1" />
    <rect
       style="opacity:1;fill:#000000;fill-opacity:1;stroke:none;stroke-width:2;stroke-linecap:round;stroke-linejoin:round;stroke-miterlimit:4;stroke-dasharray:none;stroke-dashoffset:0;stroke-opacity:1"
       id="rect4176"
       width="5.9330654"
       height="1.9557745"
       x="-22.898306"
       y="10.898305"
       ry="0"
       transform="matrix(0,-1,1,0,0,0)" />
  </g>
</svg>
